<?xml version="1.0" encoding="UTF-8" standalone="no"?>
<svg
   id="svg"
   version="1.1"
   width="400"
   height="400"
   viewBox="0, 0, 400,400"
   sodipodi:docname="ntfy2.svg"
   inkscape:version="1.3.2 (091e20ef0f, 2023-11-25, custom)"
   xmlns:inkscape="http://www.inkscape.org/namespaces/inkscape"
   xmlns:sodipodi="http://sodipodi.sourceforge.net/DTD/sodipodi-0.dtd"
   xmlns:xlink="http://www.w3.org/1999/xlink"
   xmlns="http://www.w3.org/2000/svg"
   xmlns:svg="http://www.w3.org/2000/svg">
  <defs
     id="defs1">
    <linearGradient
       id="linearGradient399"
       inkscape:collect="always">
      <stop
         style="stop-color:#43a18f;stop-opacity:1;"
         offset="0"
         id="stop399" />
      <stop
         style="stop-color:#ddf2ee;stop-opacity:1;"
         offset="1"
         id="stop400" />
    </linearGradient>
    <linearGradient
       inkscape:collect="always"
       xlink:href="#linearGradient399"
       id="linearGradient400"
       x1="96.617844"
       y1="128.87297"
       x2="303.15762"
       y2="287.4295"
       gradientUnits="userSpaceOnUse"
       gradientTransform="matrix(1.3289641,0,0,1.2764905,-68.807413,-56.053128)" />
    <filter
       inkscape:collect="always"
       style="color-interpolation-filters:sRGB"
       id="filter430"
       x="-0.017754761"
       y="-0.018478103"
       width="1.0355095"
       height="1.0369562">
      <feGaussianBlur
         inkscape:collect="always"
         stdDeviation="3.9296218"
         id="feGaussianBlur430" />
    </filter>
    <filter
       inkscape:collect="always"
       style="color-interpolation-filters:sRGB"
       id="filter434"
       x="-0.020084841"
       y="-0.020903112"
       width="1.0401697"
       height="1.0418062">
      <feGaussianBlur
         inkscape:collect="always"
         stdDeviation="4.4453328"
         id="feGaussianBlur434" />
    </filter>
  </defs>
  <sodipodi:namedview
     id="namedview1"
     pagecolor="#ffffff"
     bordercolor="#666666"
     borderopacity="1.0"
     inkscape:showpageshadow="2"
     inkscape:pageopacity="0.0"
     inkscape:pagecheckerboard="0"
     inkscape:deskcolor="#d1d1d1"
     inkscape:zoom="2.116017"
     inkscape:cx="649.56944"
     inkscape:cy="198.24982"
     inkscape:window-width="5120"
     inkscape:window-height="1403"
     inkscape:window-x="0"
     inkscape:window-y="0"
     inkscape:window-maximized="1"
     inkscape:current-layer="svg"
     inkscape:export-bgcolor="#00000047" />
  <g
     id="svgg"
     transform="matrix(-1.3289641,0,0,1.2764905,462.77825,-56.053128)">
    <path
       id="path0"
       d="M 0,200 V 400 H 200 400 V 200 0 H 200 0 v 200 m 306.44,-99.71 c 12.709,3.72 22.12,12.948 25.609,25.11 l 0.918,3.2 0.132,69.8 c 0.08,42.653 -0.017,71.278 -0.252,73.6 -1.339,13.271 -10.862,25.077 -23.676,29.352 -6.553,2.186 1.141,2 -92.771,2.246 l -86.2,0.226 -3.8,1.115 c -2.09,0.613 -6.14,1.723 -9,2.466 -2.86,0.743 -6.46,1.707 -8,2.142 -1.54,0.435 -5.68,1.538 -9.2,2.45 -3.52,0.913 -7.705,2.007 -9.3,2.431 -6.429,1.711 -9.157,2.443 -10.3,2.764 -9.58,2.691 -14.132,3.81 -14.402,3.539 -0.274,-0.274 0.17,-3.964 2.592,-21.531 0.465,-3.373 1.108,-8.357 1.611,-12.5 0.263,-2.167 0.313,-29.109 0.144,-78.5 -0.285,-83.401 -0.395,-79.257 2.293,-86.233 4.593,-11.922 16.133,-20.837 28.962,-22.374 1.32,-0.158 47.22,-0.266 102,-0.24 l 99.6,0.047 3.04,0.89 m -202.333,23.729 c -3.662,0.729 -6.298,2.702 -7.917,5.925 l -0.99,1.972 v 78.218 c 0,43.021 0.135,78.297 0.3,78.392 0.27,0.155 6.067,-1.444 13.4,-3.697 6.622,-2.034 7.873,-2.413 10.7,-3.241 1.65,-0.483 4.307,-1.308 5.904,-1.833 l 2.903,-0.955 h 84.377 c 60.897,0 84.966,-0.125 86.496,-0.449 3.777,-0.801 6.636,-2.779 8.232,-5.693 0.642,-1.174 0.695,-5.889 0.794,-70.771 l 0.105,-69.513 -0.829,-1.927 c -1.068,-2.483 -3.65,-4.945 -6.182,-5.896 -2.167,-0.814 -193.292,-1.33 -197.293,-0.532 m 23.652,27.73 c 1.783,0.963 4.861,2.607 6.841,3.654 1.98,1.047 5.13,2.752 7,3.789 1.87,1.036 5.83,3.199 8.8,4.805 2.97,1.606 7.29,3.951 9.6,5.211 2.31,1.26 5.46,2.97 7,3.8 1.54,0.83 3.845,2.112 5.121,2.85 1.277,0.738 2.409,1.342 2.515,1.342 0.459,0 13.324,7.27 13.729,7.758 0.313,0.377 0.415,4.068 0.341,12.286 l -0.106,11.747 -3.2,1.828 c -1.76,1.006 -5,2.785 -7.2,3.955 -4.18,2.222 -8.234,4.43 -18.6,10.131 -3.41,1.875 -7.37,4.026 -8.8,4.779 -1.43,0.754 -3.59,1.915 -4.8,2.58 -1.21,0.665 -3.82,2.075 -5.8,3.132 -1.98,1.058 -3.78,2.05 -4,2.205 -0.381,0.269 -1.746,1.015 -8.6,4.698 -4.29,2.305 -4,3.107 -4,-11.056 0,-14.318 -0.527,-12.77 5.4,-15.857 2.42,-1.26 5.84,-3.051 7.6,-3.98 1.76,-0.928 5.18,-2.729 7.6,-4.002 2.42,-1.273 4.94,-2.627 5.6,-3.009 0.66,-0.382 3.72,-2.002 6.8,-3.599 7.986,-4.142 7.82,-3.522 1.8,-6.699 -7.84,-4.138 -17.495,-9.25 -20.2,-10.696 -1.54,-0.823 -5.05,-2.669 -7.8,-4.102 -2.75,-1.434 -5.405,-2.856 -5.9,-3.162 l -0.9,-0.555 v -12.525 c 0,-11.34 0.095,-13.057 0.726,-13.057 0.106,0 1.651,0.787 3.433,1.749 M 275,241 v 12 l -33.956,0.102 c -24.756,0.075 -34.104,-0.02 -34.5,-0.349 -0.746,-0.618 -0.804,-22.733 -0.062,-23.475 0.371,-0.371 8.374,-0.459 34.5,-0.38 L 275,229 v 12"
       stroke="none"
       fill="#43a18f"
       fill-rule="evenodd"
       sodipodi:nodetypes="ccccccccccscccccccssccccsccccccccccscccccsccccccccscssscscccccccscccsccssccccccsscccccsccc" />
    <path
       id="path1"
       d="m 101.8,99.593 c -12.829,1.537 -24.369,10.452 -28.962,22.374 -2.688,6.976 -2.578,2.832 -2.293,86.233 0.169,49.391 0.119,76.333 -0.144,78.5 -0.503,4.143 -1.146,9.127 -1.611,12.5 -2.422,17.567 -2.866,21.257 -2.592,21.531 0.27,0.271 4.822,-0.848 14.402,-3.539 1.143,-0.321 3.871,-1.053 10.3,-2.764 1.595,-0.424 5.78,-1.518 9.3,-2.431 3.52,-0.912 7.66,-2.015 9.2,-2.45 1.54,-0.435 5.14,-1.399 8,-2.142 2.86,-0.743 6.91,-1.853 9,-2.466 l 3.8,-1.115 86.2,-0.226 c 93.912,-0.246 86.218,-0.06 92.771,-2.246 12.814,-4.275 22.337,-16.081 23.676,-29.352 0.235,-2.322 0.332,-30.947 0.252,-73.6 l -0.132,-69.8 -0.918,-3.2 c -3.489,-12.162 -12.9,-21.39 -25.609,-25.11 L 303.4,99.4 203.8,99.353 c -54.78,-0.026 -100.68,0.082 -102,0.24 m 199.6,24.958 c 2.532,0.951 5.114,3.413 6.182,5.896 l 0.829,1.927 -0.105,69.513 c -0.099,64.882 -0.152,69.597 -0.794,70.771 -1.596,2.914 -4.455,4.892 -8.232,5.693 -1.53,0.324 -25.599,0.449 -86.496,0.449 h -84.377 l -2.903,0.955 c -1.597,0.525 -4.254,1.35 -5.904,1.833 -2.827,0.828 -4.078,1.207 -10.7,3.241 -7.333,2.253 -13.13,3.852 -13.4,3.697 -0.165,-0.095 -0.3,-35.371 -0.3,-78.392 v -78.218 l 0.99,-1.972 c 1.619,-3.223 4.255,-5.196 7.917,-5.925 4.001,-0.798 195.126,-0.282 197.293,0.532 m -177.533,25.716 c -0.147,0.146 -0.267,5.902 -0.267,12.79 v 12.525 l 0.9,0.555 c 0.495,0.306 3.15,1.728 5.9,3.162 2.75,1.433 6.26,3.279 7.8,4.102 2.705,1.446 12.36,6.558 20.2,10.696 6.02,3.177 6.186,2.557 -1.8,6.699 -3.08,1.597 -6.14,3.217 -6.8,3.599 -0.66,0.382 -3.18,1.736 -5.6,3.009 -2.42,1.273 -5.84,3.074 -7.6,4.002 -1.76,0.929 -5.18,2.72 -7.6,3.98 -5.927,3.087 -5.4,1.539 -5.4,15.857 0,14.163 -0.29,13.361 4,11.056 6.854,-3.683 8.219,-4.429 8.6,-4.698 0.22,-0.155 2.02,-1.147 4,-2.205 1.98,-1.057 4.59,-2.467 5.8,-3.132 1.21,-0.665 3.37,-1.826 4.8,-2.58 1.43,-0.753 5.39,-2.904 8.8,-4.779 10.366,-5.701 14.42,-7.909 18.6,-10.131 2.2,-1.17 5.44,-2.949 7.2,-3.955 l 3.2,-1.828 0.106,-11.747 c 0.074,-8.218 -0.028,-11.909 -0.341,-12.286 -0.405,-0.488 -13.27,-7.758 -13.729,-7.758 -0.106,0 -1.238,-0.604 -2.515,-1.342 -1.276,-0.738 -3.581,-2.02 -5.121,-2.85 -1.54,-0.83 -4.69,-2.54 -7,-3.8 -2.31,-1.26 -6.63,-3.605 -9.6,-5.211 -2.97,-1.606 -6.93,-3.769 -8.8,-4.805 -1.87,-1.037 -5.02,-2.742 -7,-3.789 -1.98,-1.047 -5.058,-2.691 -6.841,-3.654 -3.481,-1.879 -3.492,-1.883 -3.892,-1.482 m 82.615,79.011 c -0.742,0.742 -0.684,22.857 0.062,23.475 0.396,0.329 9.744,0.424 34.5,0.349 L 275,253 v -12 -12 l -34.018,-0.102 c -26.126,-0.079 -34.129,0.009 -34.5,0.38"
       stroke="none"
       fill="#f7fafa"
       fill-rule="evenodd"
       sodipodi:nodetypes="ccccccsccsscccccccsccccccccccscccccscccccsccccccssccscccscccccccscssscscccccccccc" />
  </g>
  <path
     style="fill:#43a18f;fill-opacity:1;stroke-width:0.435243"
     d="m 283.36187,247.94445 c -7.083,-3.71455 -22.17094,-11.60316 -33.52875,-17.53024 -11.35782,-5.92708 -24.50691,-12.81875 -29.2202,-15.31488 l -8.56962,-4.53835 0.1317,-15.06718 0.1317,-15.06719 1.03952,-0.75272 c 1.07208,-0.77632 11.05775,-6.14154 24.27408,-13.04228 4.15232,-2.16808 16.74251,-8.7427 27.9782,-14.61025 28.65162,-14.96258 31.75235,-16.50559 32.2357,-16.04131 0.24862,0.2388 0.36954,6.82102 0.29998,16.33098 l -0.11654,15.93094 -4.66304,2.42093 c -2.56466,1.33152 -13.85587,7.07529 -25.09155,12.76397 -11.23568,5.68866 -20.82265,10.71113 -21.30438,11.16103 -0.87174,0.81416 -0.87174,0.82176 0,1.61713 0.48173,0.43952 4.77282,2.77199 9.53576,5.18327 4.76296,2.41128 13.25635,6.72155 18.87419,9.57837 5.61785,2.85683 12.65576,6.40297 15.63983,7.88032 3.25566,1.6118 5.74224,3.13387 6.21738,3.80572 0.71265,1.00772 0.80548,2.52675 0.92859,15.19623 0.14746,15.17386 0.0324,16.84926 -1.15679,16.84926 -0.41674,0 -6.55291,-3.03919 -13.63591,-6.75375 z"
     id="path3"
     sodipodi:nodetypes="csscccssssscsssssssssscc" />
  <path
     style="fill:url(#linearGradient400);fill-opacity:1;stroke-width:0.435243"
     d="m 331.76925,311.16563 c -15.61868,-4.44977 -23.23311,-6.65041 -30.91357,-8.93435 l -9.15277,-2.72176 -113.41837,-0.1177 -113.418364,-0.11769 -2.532089,-0.98269 c -2.788314,-1.08213 -6.632704,-4.14425 -7.806107,-6.21771 -0.685006,-1.21042 -0.779393,-4.66999 -1.042959,-38.22858 -0.159391,-20.29374 -0.311775,-60.27994 -0.338632,-88.85821 l -0.04882,-51.96049 1.139977,-2.31455 c 1.224967,-2.48713 4.309481,-5.7368 6.56971,-6.92145 1.191564,-0.62453 3.364046,-0.77222 14.939328,-1.01553 23.351652,-0.49088 234.077596,-0.89975 242.477666,-0.47049 7.03155,0.35933 7.9832,0.50188 9.99221,1.49679 2.57247,1.27397 4.94512,3.54789 6.60439,6.32959 l 1.16733,1.95703 v 95.98035 c 0,52.7892 -0.12984,97.73743 -0.28854,99.88496 -0.32412,4.38595 -0.1917,4.27772 -3.93039,3.21257 z"
     id="path4"
     sodipodi:nodetypes="sscccsssscsssssscssss" />
  <path
     style="fill:#43a18f;fill-opacity:1;stroke-width:0.472586"
     d="M -68.761261,199.19499 V -56.001439 H 196.83206 462.42539 V 199.19499 454.39143 H 196.83206 -68.761261 Z M 374.99698,351.91376 c 0,-1.82978 -4.41634,-34.53135 -5.02001,-37.17149 -0.17829,-0.77977 -0.46182,-47.45945 -0.63007,-103.73263 -0.34344,-114.8667 0.0111,-104.76346 -3.97146,-113.170768 -2.54364,-5.369655 -4.2082,-7.844795 -8.00617,-11.904838 C 351.17643,79.31387 343.52996,74.758892 333.882,71.942743 L 330.3376,70.908167 194.61036,70.774302 58.883122,70.640438 54.252323,72.1132 C 37.803079,77.344665 26.302184,88.266765 21.53287,103.18603 l -1.458863,4.56357 -0.04926,91.68169 c -0.0454,84.51402 0.0134,91.97725 0.752172,95.46237 2.768872,13.06197 11.386005,24.30572 23.53121,30.70383 2.142601,1.12873 5.880595,2.72588 8.306648,3.54922 4.302584,1.46019 4.70336,1.5069 16.304217,1.90035 6.541266,0.22185 58.969246,0.54707 116.506626,0.72272 101.35287,0.30939 104.71117,0.34771 107.74961,1.22934 1.7249,0.5005 13.13138,3.4678 25.34772,6.594 12.21635,3.12621 28.69779,7.35386 36.62542,9.39478 17.81549,4.5865 18.00801,4.63401 19.02158,4.69387 0.6527,0.0385 0.82703,-0.33412 0.82703,-1.76801 z"
     id="path400"
     sodipodi:nodetypes="cccccccccsssssscccsscsssssssssss" />
  <path
     style="fill:#43a18f;fill-opacity:1;stroke-width:0.472586"
     d="M -68.761261,199.19499 V -56.001439 H 196.83206 462.42539 V 199.19499 454.39143 H 196.83206 -68.761261 Z M 374.99698,351.91376 c 0,-1.82978 -4.41634,-34.53135 -5.02001,-37.17149 -0.17829,-0.77977 -0.46182,-47.45945 -0.63007,-103.73263 -0.34344,-114.8667 0.0111,-104.76346 -3.97146,-113.170768 -2.54364,-5.369655 -4.2082,-7.844795 -8.00617,-11.904838 C 351.17643,79.31387 343.52996,74.758892 333.882,71.942743 L 330.3376,70.908167 194.61036,70.774302 58.883122,70.640438 54.252323,72.1132 C 37.803079,77.344665 26.302184,88.266765 21.53287,103.18603 l -1.458863,4.56357 -0.04926,91.68169 c -0.0454,84.51402 0.0134,91.97725 0.752172,95.46237 2.768872,13.06197 11.386005,24.30572 23.53121,30.70383 2.142601,1.12873 5.880595,2.72588 8.306648,3.54922 4.302584,1.46019 4.70336,1.5069 16.304217,1.90035 6.541266,0.22185 58.969246,0.54707 116.506626,0.72272 101.35287,0.30939 104.71117,0.34771 107.74961,1.22934 1.7249,0.5005 13.13138,3.4678 25.34772,6.594 12.21635,3.12621 28.69779,7.35386 36.62542,9.39478 17.81549,4.5865 18.00801,4.63401 19.02158,4.69387 0.6527,0.0385 0.82703,-0.33412 0.82703,-1.76801 z"
     id="path401"
     sodipodi:nodetypes="cccccccccsssssscccsscsssssssssss" />
  <path
     style="fill:#43a18f;fill-opacity:1;stroke-width:0.472586"
     d="M -68.761261,199.19499 V -56.001439 H 196.83206 462.42539 V 199.19499 454.39143 H 196.83206 -68.761261 Z M 374.99698,351.91376 c 0,-1.82978 -4.41634,-34.53135 -5.02001,-37.17149 -0.17829,-0.77977 -0.46182,-47.45945 -0.63007,-103.73263 -0.34344,-114.8667 0.0111,-104.76346 -3.97146,-113.170768 -2.54364,-5.369655 -4.2082,-7.844795 -8.00617,-11.904838 C 351.17643,79.31387 343.52996,74.758892 333.882,71.942743 L 330.3376,70.908167 194.61036,70.774302 58.883122,70.640438 54.252323,72.1132 C 37.803079,77.344665 26.302184,88.266765 21.53287,103.18603 l -1.458863,4.56357 -0.04926,91.68169 c -0.0454,84.51402 0.0134,91.97725 0.752172,95.46237 2.768872,13.06197 11.386005,24.30572 23.53121,30.70383 2.142601,1.12873 5.880595,2.72588 8.306648,3.54922 4.302584,1.46019 4.70336,1.5069 16.304217,1.90035 6.541266,0.22185 58.969246,0.54707 116.506626,0.72272 101.35287,0.30939 104.71117,0.34771 107.74961,1.22934 1.7249,0.5005 13.13138,3.4678 25.34772,6.594 12.21635,3.12621 28.69779,7.35386 36.62542,9.39478 17.81549,4.5865 18.00801,4.63401 19.02158,4.69387 0.6527,0.0385 0.82703,-0.33412 0.82703,-1.76801 z"
     id="path402"
     sodipodi:nodetypes="cccccccccsssssscccsscsssssssssss" />
  <path
     style="fill:#43a18f;fill-opacity:1;stroke-width:0.472586"
     d="M -68.761261,199.19499 V -56.001439 H 196.83206 462.42539 V 199.19499 454.39143 H 196.83206 -68.761261 Z M 374.89857,352.04017 c 0.0758,-0.75976 -0.84203,-8.39927 -2.03971,-16.97671 -1.19767,-8.57743 -2.47666,-17.93463 -2.84221,-20.79378 -0.5468,-4.27675 -0.69783,-22.71062 -0.85184,-103.96892 -0.13563,-71.55664 -0.33873,-99.87514 -0.73713,-102.7798 -0.58261,-4.24763 -2.5315,-9.383688 -5.32544,-14.034525 C 357.28007,83.794769 346.73125,75.916307 334.59088,72.1925 L 330.3376,70.887898 194.74819,70.764146 59.158777,70.640395 55.099032,71.869903 C 38.231677,76.978246 26.842619,87.698641 21.503919,103.49262 l -1.419015,4.198 0.0036,91.23859 c 0.0023,60.01019 0.169456,92.28998 0.48822,94.31039 2.62521,16.63911 14.991467,30.2888 32.589231,35.9715 4.480758,1.44693 4.519246,1.45055 19.612319,1.84281 8.317513,0.21616 60.526446,0.53192 116.019856,0.70168 l 100.89711,0.30864 6.8525,1.82764 c 3.76887,1.0052 18.23,4.73105 32.13584,8.27968 13.90585,3.54862 29.74929,7.59408 35.20766,8.9899 5.45837,1.39582 10.13697,2.47536 10.39689,2.39897 0.25992,-0.0764 0.53463,-0.76051 0.61047,-1.52025 z"
     id="path403"
     sodipodi:nodetypes="cccccccccssssssscccssccsssscssssss" />
  <path
     style="fill:#43a18f;fill-opacity:1;stroke-width:0.472586"
     d="M -68.761261,199.19499 V -56.001439 H 196.83206 462.42539 V 199.19499 454.39143 H 196.83206 -68.761261 Z M 374.66338,350.3728 c -0.0535,-1.66216 -1.07486,-10.04 -2.26964,-18.61744 -1.19478,-8.57743 -2.36724,-17.08398 -2.60547,-18.90344 -0.24679,-1.88481 -0.45156,-38.99202 -0.47595,-86.24694 -0.046,-89.17728 -0.41715,-118.69359 -1.54198,-122.63606 C 363.58823,89.31084 351.07322,77.331499 334.59088,72.209603 L 330.3376,70.887898 194.77782,70.763367 59.21803,70.638836 55.953727,71.610987 C 38.561651,76.790572 26.859056,87.650022 21.461491,103.61814 l -1.376587,4.07248 0.0039,90.29341 c 0.0024,55.75453 0.180688,91.83623 0.466097,94.3267 1.033106,9.01474 5.443042,17.77988 12.491884,24.82872 5.433265,5.43327 11.87472,9.27978 20.225097,12.07742 l 4.322815,1.44827 17.988674,0.39337 c 9.893772,0.21636 62.116389,0.53087 116.050269,0.69892 l 98.06159,0.30554 9.68801,2.53907 c 8.42787,2.2088 27.35146,7.06713 64.50799,16.5614 5.45837,1.39473 10.13697,2.46738 10.39689,2.38366 0.26386,-0.085 0.42961,-1.48694 0.37528,-3.1743 z"
     id="path404"
     sodipodi:nodetypes="cccccccccsssssscccsscsssscsscsssss" />
  <path
     style="fill:#43a18f;fill-opacity:1;stroke-width:0.472586"
     d="M -68.761261,199.19499 V -56.001439 H 196.83206 462.42539 V 199.19499 454.39143 H 196.83206 -68.761261 Z m 443.507771,153.6351 c 0.32204,-1.01465 -0.87096,-10.81013 -3.40129,-27.92722 l -1.71157,-11.57836 -0.34218,-99.47935 C 369.07205,150.05675 368.77006,112.55412 368.44974,109.3162 366.81383,92.779508 353.33393,78.005747 334.59088,72.207415 L 330.3376,70.891627 194.75158,70.756878 59.165558,70.622134 54.789346,72.031168 C 48.789144,73.963086 44.742513,75.86497 40.222195,78.877607 31.14654,84.926225 25.422664,92.458381 21.541424,103.45998 l -1.487682,4.21693 0.144744,93.13579 0.144743,93.13578 1.085871,3.5444 c 3.212323,10.48533 9.790233,19.50725 18.504416,25.37969 3.343999,2.25351 8.630266,4.76695 13.355223,6.34995 l 4.339696,1.45393 20.571015,0.38387 c 11.314063,0.21111 63.52909,0.52327 116.03339,0.69366 l 95.46237,0.30981 10.63318,2.76676 c 9.24337,2.40512 20.53143,5.30459 64.50799,16.56961 4.93852,1.26505 9.1243,2.30692 9.30173,2.31527 0.17742,0.008 0.45121,-0.39005 0.6084,-0.88534 z"
     id="path405"
     sodipodi:nodetypes="cccccccccsscssscccssscccssscsscsscs" />
  <path
     style="fill:#43a18f;fill-opacity:1;stroke-width:0.472586"
     d="M -68.761261,199.19499 V -56.001439 H 196.83206 462.42539 V 199.19499 454.39143 H 196.83206 -68.761261 Z M 374.7375,352.8585 c 0.28042,-0.88352 -1.11861,-12.59124 -3.28044,-27.45227 -0.65177,-4.48048 -1.39338,-9.97988 -1.64803,-12.22088 -0.27968,-2.46141 -0.50409,-35.14092 -0.56682,-82.54361 -0.0571,-43.15798 -0.25189,-88.57058 -0.43285,-100.91689 -0.36841,-25.13632 -0.41268,-25.51296 -3.81877,-32.484768 C 359.16837,85.322777 348.43096,76.510953 334.49607,72.214291 L 330.3376,70.93208 194.80356,70.759435 59.269527,70.586794 54.173411,72.28489 c -9.729109,3.241879 -15.857784,7.043833 -22.295449,13.831089 -4.433679,4.674448 -7.273482,9.249519 -9.874018,15.907591 l -1.682747,4.30828 v 93.57202 93.57203 l 1.080776,3.78068 c 4.305793,15.06219 15.58091,26.39304 31.747996,31.90491 l 4.473612,1.5252 25.771891,0.37899 c 14.174541,0.20845 66.390658,0.51869 116.035818,0.68942 l 90.26392,0.31042 22.92042,5.89671 c 46.41357,11.94076 60.51414,15.54221 61.52248,15.71356 0.17742,0.0301 0.44715,-0.33763 0.59939,-0.81729 z"
     id="path406"
     sodipodi:nodetypes="cccccccccssssssscccssscccsscsscsss" />
  <path
     style="fill:#ffffff;fill-opacity:1;stroke-width:0.472586"
     d="M -68.761261,199.19499 V -56.001439 H 196.83206 462.42539 V 199.19499 454.39143 H 196.83206 -68.761261 Z M 373.56744,341.11713 c -0.75802,-5.92874 -1.80555,-13.68643 -2.32784,-17.23932 -0.52229,-3.55288 -1.1619,-8.32802 -1.42135,-10.61142 -0.28964,-2.54901 -0.51223,-32.80125 -0.57662,-78.36939 -0.13877,-98.21269 -0.45836,-126.09728 -1.49408,-130.35784 -0.84025,-3.45654 -3.592,-9.340735 -6.21906,-13.298581 -2.11789,-3.190735 -7.71058,-8.799631 -11.39763,-11.43065 -3.67183,-2.620163 -11.62497,-6.425185 -16.24886,-7.77394 L 330.3376,71.002112 194.92349,70.773915 59.509374,70.545722 54.410838,72.2518 C 45.406355,75.26489 39.649596,78.604509 33.717923,84.256207 27.798387,89.896346 23.482807,96.968543 21.027099,105.05342 l -0.982034,3.23314 0.15378,92.83096 0.153784,92.83096 1.020011,3.3207 c 4.828364,15.71898 15.695582,26.4534 32.502162,32.10499 l 3.780688,1.27134 28.827745,0.40065 c 15.855265,0.22035 68.064195,0.53881 116.019855,0.70768 l 87.19212,0.30703 25.54122,6.56794 c 58.12998,14.94816 59.00999,15.15807 59.37795,14.16339 0.1822,-0.49255 -0.28892,-5.74632 -1.04694,-11.67507 z"
     id="path407"
     sodipodi:nodetypes="cccccccccsssssssscccssscccsscsscsss" />
  <path
     style="fill:#ffffff;fill-opacity:1;stroke-width:0.472586"
     d="M -68.761261,199.19499 V -56.001439 H 196.83206 462.42539 V 199.19499 454.39143 H 196.83206 -68.761261 Z M 374.99698,352.53052 c 0,-1.59927 -1.10297,-10.68109 -3.11823,-25.67533 l -2.11948,-15.76966 -0.45962,-98.59615 c -0.2528,-54.22789 -0.64979,-100.82913 -0.8822,-103.55831 -0.77,-9.042026 -5.33606,-17.75775 -13.12266,-25.048617 -5.6517,-5.2919 -11.14397,-8.477068 -19.79475,-11.479733 L 330.81019,70.774879 195.17801,70.545438 59.545834,70.315993 54.180821,72.156295 c -6.080296,2.085654 -11.025488,4.441377 -14.483598,6.899495 -8.688059,6.175712 -14.460205,13.71093 -18.051802,23.56564 l -1.696754,4.65559 0.111734,93.52996 0.111729,93.52997 1.200467,3.58645 c 2.781372,8.30948 5.972107,13.56915 11.653224,19.2094 5.720332,5.67918 11.605058,9.21577 20.612688,12.38776 l 4.016981,1.41456 30.954382,0.33502 c 17.024908,0.18426 69.340178,0.50347 116.256148,0.70935 l 85.30178,0.37432 34.26248,8.84659 c 48.72604,12.5811 50.5667,12.99352 50.5667,11.33012 z"
     id="path410"
     sodipodi:nodetypes="cccccccccsscsssscccssscccssscsscss" />
  <path
     style="fill:#ffffff;fill-opacity:1;stroke-width:0.472586"
     d="M -68.761261,199.19499 V -56.001439 H 196.83206 462.42539 V 199.19499 454.39143 H 196.83206 -68.761261 Z M 374.74437,349.83178 c -0.17041,-1.88444 -1.35571,-11.29481 -2.634,-20.91193 l -2.32415,-17.48569 -0.48017,-98.29788 c -0.26409,-54.06384 -0.66261,-100.63719 -0.88559,-103.49633 -0.44338,-5.68511 -1.13098,-8.10751 -3.8231,-13.468702 C 358.88809,84.80159 347.90702,76.128016 333.882,71.910229 L 329.86502,70.702186 194.70543,70.50946 59.545834,70.316735 54.180821,72.156664 C 51.23006,73.168626 47.295782,74.756997 45.43798,75.686375 34.381509,81.217451 25.912206,90.814869 21.66897,102.62143 l -1.6732,4.65559 0.06934,93.43851 0.06934,93.43851 1.394238,4.12472 c 5.204882,15.39807 15.450589,25.36596 32.109821,31.23916 l 4.016981,1.41618 31.190675,0.33576 c 17.154875,0.18467 69.470145,0.50054 116.256155,0.70193 l 85.06548,0.36617 15.83163,4.12587 c 31.22103,8.13649 65.95434,16.77432 67.49026,16.78417 l 1.56452,0.01 z"
     id="path411"
     sodipodi:nodetypes="cccccccccsscsssscccssscccsscsscsscs" />
  <path
     style="fill:#ffffff;fill-opacity:1;stroke-width:0.472586"
     d="M -68.761261,199.19499 V -56.001439 H 196.83206 462.42539 V 199.19499 454.39143 H 196.83206 -68.761261 Z m 443.753691,153.4723 c -0.0111,-1.43484 -1.54385,-14.01019 -3.29777,-27.05555 l -1.90616,-14.17758 -0.47248,-96.64383 c -0.25987,-53.15411 -0.65776,-99.72746 -0.88421,-103.49633 -0.35282,-5.87208 -0.61213,-7.36824 -1.81243,-10.45723 -5.35047,-13.769527 -16.29357,-23.577969 -32.0285,-28.707545 L 330.3376,70.742663 194.94172,70.528978 59.545834,70.315289 54.819974,71.931401 C 37.390096,77.891925 26.558671,88.202054 21.199754,103.93354 l -1.11485,3.27273 v 93.4006 93.4006 l 1.391761,4.11737 c 5.146164,15.22438 15.132034,25.04655 31.689258,31.16978 l 4.489567,1.66034 34.026191,0.32399 c 18.714409,0.1782 71.029669,0.48957 116.256149,0.69195 l 82.22997,0.36796 29.53662,7.60916 c 52.09532,13.42068 55.29909,14.15772 55.28801,12.71927 z"
     id="path412"
     sodipodi:nodetypes="cccccccccsscsssscccsscccsscsscss" />
  <path
     style="fill:#ffffff;fill-opacity:1;stroke-width:0.472586"
     d="M -68.761261,199.19499 V -56.001439 H 196.83206 462.42539 V 199.19499 454.39143 H 196.83206 -68.761261 Z M 374.60962,349.94543 c -0.0831,-1.68703 -1.20394,-11.01527 -2.4908,-20.72944 l -2.33974,-17.66212 -0.47541,-95.52222 c -0.26148,-52.53722 -0.66012,-99.13968 -0.88586,-103.56101 -0.37334,-7.31194 -0.54231,-8.38017 -1.86882,-11.81465 -5.19724,-13.4563 -16.26932,-23.339084 -31.95811,-28.525371 L 330.3376,70.724605 194.46913,70.614223 58.600662,70.503841 54.111095,72.176805 C 44.13352,75.894795 39.421285,78.683634 33.621156,84.303352 27.784568,89.958401 24.23662,95.538919 21.32574,103.64264 l -1.240836,3.45441 v 93.50621 93.5062 l 1.471765,4.17279 c 5.478841,15.53377 14.910197,24.78009 31.651915,31.03095 l 4.532227,1.6922 75.571099,0.48898 c 41.5641,0.26894 93.86017,0.56516 116.21349,0.65828 l 40.6424,0.16931 34.34543,8.8309 c 37.49728,9.64129 46.90648,11.92747 48.92208,11.88669 l 1.32538,-0.0268 z"
     id="path413"
     sodipodi:nodetypes="cccccccccsscsssscccssscccsscsscsscs" />
  <path
     style="fill:#ffffff;fill-opacity:1;stroke-width:0.472586"
     d="M -68.761261,199.19499 V -56.001439 H 196.83206 462.42539 V 199.19499 454.39143 H 196.83206 -68.761261 Z M 374.71684,352.85638 c 0.32837,-0.53131 -0.28648,-6.02957 -2.82674,-25.27819 l -2.11046,-15.99181 -0.4415,-89.86745 c -0.47979,-97.65823 -0.68955,-112.27106 -1.68206,-117.17507 -1.50514,-7.437 -7.82597,-17.033913 -15.00727,-22.785558 -4.49911,-3.603426 -11.94817,-7.55442 -18.12704,-9.61462 l -4.32237,-1.441199 -135.79937,-0.07833 -135.799368,-0.07834 -4.72586,1.754641 C 43.855786,76.020357 37.945257,79.706286 32.077157,85.893916 27.117938,91.12317 23.933413,96.380103 21.3254,103.64264 l -1.240496,3.45441 v 93.50621 93.5062 l 1.461057,4.17279 c 5.123191,14.63184 14.271151,23.93728 29.778016,30.29061 l 5.386341,2.20684 29.064038,0.36413 c 15.985224,0.20027 68.619484,0.5488 116.965034,0.77451 l 87.90099,0.41037 20.3212,5.2933 c 31.1793,8.12162 57.37572,14.70018 60.25471,15.13142 1.42957,0.21414 2.74617,0.41527 2.92577,0.44697 0.1796,0.0317 0.43825,-0.12312 0.57478,-0.34402 z"
     id="path414"
     sodipodi:nodetypes="cccccccccsscsssscccssscccsscsscssss" />
  <path
     style="opacity:0.71;fill:#800000;fill-opacity:1;stroke-width:0.472586"
     d="M -68.761261,199.19499 V -56.001439 H 196.83206 462.42539 V 199.19499 454.39143 H 196.83206 -68.761261 Z M 374.70182,352.8807 c 0.28559,-0.4621 -1.00046,-11.75899 -3.23881,-28.45042 l -1.67943,-12.52353 -0.45158,-86.48323 c -0.48785,-93.43195 -0.75,-115.14699 -1.44397,-119.6122 -1.00356,-6.457262 -5.80147,-14.933115 -11.83388,-20.905435 -5.64313,-5.586926 -12.03918,-9.379414 -21.19058,-12.564804 l -4.85373,-1.689476 H 194.1935 58.377157 l -4.967521,1.865887 C 36.757908,78.772168 27.094158,88.095084 21.48029,103.32072 l -1.395386,3.78449 v 93.57023 93.57023 l 1.899763,5.04137 c 5.711906,15.15757 15.269282,24.19781 32.010049,30.27802 l 3.900602,1.41669 85.654442,0.51189 c 47.10994,0.28154 99.47758,0.57492 116.37253,0.65197 l 30.71809,0.14007 23.86559,6.20423 c 38.56176,10.02473 55.31167,14.16065 59.63609,14.72546 0.1796,0.0235 0.43149,-0.12715 0.55976,-0.33467 z"
     id="path415"
     sodipodi:nodetypes="cccccccccsscsssscccsscccsscsscsss" />
  <path
     style="opacity:0;fill:#999999;fill-opacity:1;stroke-width:0.472586"
     d="M -68.761261,199.19499 V -56.001439 H 196.83206 462.42539 V 199.19499 454.39143 H 196.83206 -68.761261 Z M 374.99641,352.19471 c -8.6e-4,-1.58673 -1.24883,-12.11325 -3.29162,-27.76443 l -1.81961,-13.94129 -0.30868,-73.48712 c -0.3919,-93.2982 -0.89873,-129.08982 -1.88552,-133.15279 -1.46889,-6.047944 -5.96626,-13.46055 -11.56152,-19.055812 -5.59624,-5.59624 -10.82798,-8.779627 -20.24536,-12.318814 l -4.85041,-1.822849 H 194.25426 57.47483 l -5.77742,2.345567 C 36.259259,79.264886 27.412563,87.794047 21.79705,101.82431 l -1.712146,4.27777 v 94.50163 94.50164 l 1.453113,3.67484 c 3.124393,7.90143 6.023514,12.7588 10.336599,17.31858 5.112704,5.40513 11.170628,9.3229 19.873549,12.85257 l 5.434739,2.20419 116.728736,0.69624 116.72874,0.69624 24.57447,6.37719 c 19.38461,5.03041 49.36455,12.56204 55.76515,14.00944 0.51984,0.11756 1.63633,0.23841 2.48108,0.26856 1.29412,0.0462 1.53581,-0.11256 1.53533,-1.00849 z"
     id="path416"
     sodipodi:nodetypes="cccccccccsscsssscccsscccssscccssss" />
  <path
     style="opacity:0;fill:#999999;fill-opacity:1;stroke-width:0.472586"
     d="M -68.761261,199.19499 V -56.001439 H 196.83206 462.42539 V 199.19499 454.39143 H 196.83206 -68.761261 Z M 374.99641,352.19471 c -8.6e-4,-1.58673 -1.24883,-12.11325 -3.29162,-27.76443 l -1.81961,-13.94129 -0.30868,-73.48712 c -0.3919,-93.2982 -0.89873,-129.08982 -1.88552,-133.15279 -1.46889,-6.047944 -5.96626,-13.46055 -11.56152,-19.055812 -5.59624,-5.59624 -10.82798,-8.779627 -20.24536,-12.318814 l -4.85041,-1.822849 H 194.25426 57.47483 l -5.77742,2.345567 C 36.259259,79.264886 27.412563,87.794047 21.79705,101.82431 l -1.712146,4.27777 v 94.50163 94.50164 l 1.453113,3.67484 c 3.124393,7.90143 6.023514,12.7588 10.336599,17.31858 5.112704,5.40513 11.170628,9.3229 19.873549,12.85257 l 5.434739,2.20419 116.728736,0.69624 116.72874,0.69624 24.57447,6.37719 c 19.38461,5.03041 49.36455,12.56204 55.76515,14.00944 0.51984,0.11756 1.63633,0.23841 2.48108,0.26856 1.29412,0.0462 1.53581,-0.11256 1.53533,-1.00849 z"
     id="path417"
     sodipodi:nodetypes="cccccccccsscsssscccsscccssscccssss" />
  <path
     style="opacity:0;fill:#999999;fill-opacity:1;stroke-width:0.472586"
     d="M -68.761261,199.19499 V -56.001439 H 196.83206 462.42539 V 199.19499 454.39143 Z M 374.99641,352.19471 c -8.6e-4,-1.58673 -1.24883,-12.11325 -3.29162,-27.76443 l -1.81961,-13.94129 -0.30868,-73.48712 c -0.3919,-93.2982 -0.89873,-129.08982 -1.88552,-133.15279 -1.46889,-6.047944 -5.96626,-13.46055 -11.56152,-19.055812 -5.59624,-5.59624 -10.82798,-8.779627 -20.24536,-12.318814 l -4.85041,-1.822849 H 194.25426 57.47483 l -5.77742,2.345567 C 36.259259,79.264886 27.412563,87.794047 21.79705,101.82431 l -1.712146,4.27777 v 94.50163 94.50164 l 1.453113,3.67484 c 3.124393,7.90143 6.023514,12.7588 10.336599,17.31858 5.112704,5.40513 11.170628,9.3229 19.873549,12.85257 l 5.434739,2.20419 116.728736,0.69624 116.72874,0.69624 24.57447,6.37719 c 19.38461,5.03041 49.36455,12.56204 55.76515,14.00944 0.51984,0.11756 1.63633,0.23841 2.48108,0.26856 1.29412,0.0462 1.53581,-0.11256 1.53533,-1.00849 z"
     id="path418"
     sodipodi:nodetypes="cccccccsscsssscccsscccssscccssss" />
  <path
     style="opacity:0.08;fill:#999999;fill-opacity:1;stroke-width:0.472586"
     d="M -68.761261,199.19499 V -56.001439 H 196.83206 462.42539 V 199.19499 454.39143 H -68.761261 Z M 374.99641,352.19471 c -8.6e-4,-1.58673 -1.24883,-12.11325 -3.29162,-27.76443 l -1.81961,-13.94129 -0.30868,-73.48712 c -0.3919,-93.2982 -0.89873,-129.08982 -1.88552,-133.15279 -1.46889,-6.047944 -5.96626,-13.46055 -11.56152,-19.055812 -5.59624,-5.59624 -10.82798,-8.779627 -20.24536,-12.318814 l -4.85041,-1.822849 H 194.25426 57.47483 l -5.77742,2.345567 C 36.259259,79.264886 27.412563,87.794047 21.79705,101.82431 l -1.712146,4.27777 v 94.50163 94.50164 l 1.453113,3.67484 c 3.124393,7.90143 6.023514,12.7588 10.336599,17.31858 5.112704,5.40513 11.170628,9.3229 19.873549,12.85257 l 5.434739,2.20419 116.728736,0.69624 116.72874,0.69624 24.57447,6.37719 c 19.38461,5.03041 49.36455,12.56204 55.76515,14.00944 0.51984,0.11756 1.63633,0.23841 2.48108,0.26856 1.29412,0.0462 1.53581,-0.11256 1.53533,-1.00849 z"
     id="path419"
     sodipodi:nodetypes="ccccccccsscsssscccsscccssscccssss" />
  <path
     style="opacity:0.08;fill:#999999;fill-opacity:1;stroke-width:0.472586"
     d="M -68.761261,199.19499 V -56.001439 H 196.83206 462.42539 V 199.19499 454.39143 H 196.83206 -68.761261 Z M 374.99698,351.90768 c 0,-0.74269 -0.84263,-8.02642 -1.87251,-16.18607 -1.02988,-8.15965 -2.18126,-17.28136 -2.55864,-20.27046 -0.56018,-4.43714 -0.74269,-18.83727 -0.9943,-78.44928 -0.40271,-95.41075 -0.88307,-129.21363 -1.89047,-133.03295 -1.73847,-6.591056 -5.93768,-13.561723 -11.5516,-19.175652 -5.53767,-5.537663 -10.43651,-8.539279 -19.99777,-12.253021 l -4.84891,-1.883392 -136.90398,-0.0026 -136.90397,-0.0026 -5.77742,2.345567 C 36.168031,79.301927 27.270461,87.955034 21.683408,102.18654 l -1.598504,4.07175 v 94.42353 94.42353 l 1.453113,3.67484 c 3.124393,7.90143 6.023514,12.7588 10.336599,17.31858 4.904024,5.18452 10.557741,8.92772 18.78387,12.43639 l 5.10666,2.17813 11.342064,0.37046 c 6.238135,0.20375 59.08506,0.61411 117.43762,0.9119 l 106.09555,0.54144 6.37991,1.65015 c 3.50895,0.90758 12.12183,3.14979 19.13973,4.98269 26.64118,6.958 55.36078,14.03452 57.06476,14.06078 1.64076,0.0253 1.7722,-0.0728 1.7722,-1.32303 z"
     id="path420"
     sodipodi:nodetypes="cccccccccssssssscccsscccssscsscssss" />
  <path
     style="opacity:1;fill:#999999;fill-opacity:1;stroke-width:0.472586"
     d="M -68.761261,199.19499 V -56.001439 H 196.83206 462.42539 V 199.19499 454.39143 H 196.83206 -68.761261 Z M 374.81882,349.59548 c -0.15217,-2.01439 -1.22729,-11.22151 -2.38915,-20.46025 l -2.11248,-16.79771 -0.257,-20.064 c -0.14135,-11.03519 -0.36629,-44.20132 -0.49986,-73.7025 -0.44086,-97.3738 -0.77463,-112.46335 -2.59084,-117.13079 -3.37059,-8.662012 -9.19518,-16.258865 -16.66807,-21.739728 -3.43486,-2.519238 -12.60379,-7.097613 -15.71054,-7.844828 -0.25992,-0.06252 -1.07126,-0.359005 -1.80296,-0.658866 -0.99454,-0.407572 -35.97122,-0.545203 -138.55565,-0.545203 H 57.006994 l -5.699227,2.406951 c -9.590357,4.050289 -15.906786,8.433009 -21.391094,14.842437 -3.000411,3.506536 -6.721175,10.051077 -9.10073,16.007487 -0.651162,1.62998 -0.731039,12.20525 -0.731039,96.78874 v 94.95882 l 1.607591,3.87208 c 0.88418,2.12964 2.372826,5.22166 3.308102,6.87115 0.935281,1.64948 1.700511,3.10797 1.700511,3.24109 0,0.55491 4.80748,6.22383 7.153997,8.43591 4.309158,4.06228 10.465417,7.82707 18.5091,11.31904 l 3.687844,1.60098 12.852665,0.26026 c 15.250005,0.30881 66.389026,0.63454 154.864746,0.98642 35.4794,0.1411 65.25231,0.34978 66.16204,0.46372 0.90973,0.11395 8.24663,1.91855 16.30422,4.01025 8.05759,2.09169 15.07549,3.89756 15.59534,4.01304 0.51984,0.11549 3.92246,0.98064 7.56137,1.92256 3.63891,0.94192 6.9352,1.78848 7.32508,1.88124 3.4875,0.82971 26.69234,6.64979 30.00921,7.5267 2.33931,0.61846 5.17926,1.14091 6.31103,1.16101 l 2.05774,0.0365 z"
     id="path421"
     sodipodi:nodetypes="cccccccccsscssssssscsssscssssscssssssssscs" />
  <path
     style="opacity:1;fill:none;fill-opacity:1;stroke-width:0.472586"
     d="M -68.761261,199.19499 V -56.001439 H 196.83206 462.42539 V 199.19499 454.39143 H 196.83206 -68.761261 Z M 375.26905,352.19471 c -0.12019,-0.58483 -0.35085,-2.6583 -0.51257,-4.60772 -0.16173,-1.94941 -1.11407,-10.2433 -2.11632,-18.43085 -1.00224,-8.18755 -1.94633,-16.58777 -2.09796,-18.66715 -0.15162,-2.07938 -0.49169,-41.74115 -0.75569,-88.13728 -0.47335,-83.18697 -0.93345,-111.71297 -1.8969,-117.60716 -0.97662,-5.974722 -5.35173,-13.518016 -11.50519,-19.836543 -4.48296,-4.603219 -8.27553,-7.245235 -15.0203,-10.463607 -8.7664,-4.183024 6.43338,-3.792795 -147.73317,-3.792795 H 56.413993 l -5.050286,2.150611 C 36.869467,78.974444 29.041189,86.216324 22.526454,99.47935 l -2.205257,4.48957 -0.124852,96.34316 -0.124848,96.34316 3.302185,6.83686 c 5.617375,11.63026 11.589765,17.53952 23.970771,23.7174 8.738252,4.36021 4.986439,3.92043 37.248438,4.36623 15.855259,0.2191 68.595859,0.59477 117.201329,0.83483 l 88.37358,0.43647 17.01309,4.3625 c 65.12436,16.69921 68.5975,17.4636 68.08816,14.98518 z"
     id="path422"
     sodipodi:nodetypes="cccccccccssssssssscsscccsssscss" />
  <path
     style="opacity:1;fill:none;fill-opacity:1;stroke-width:0.472586"
     d="M -68.761261,199.19499 V -56.001439 H 196.83206 462.42539 V 199.19499 454.39143 H 196.83206 -68.761261 Z M 375.26905,352.19471 c -0.12019,-0.58483 -0.35085,-2.6583 -0.51257,-4.60772 -0.16173,-1.94941 -1.11407,-10.2433 -2.11632,-18.43085 -1.00224,-8.18755 -1.94633,-16.58777 -2.09796,-18.66715 -0.15162,-2.07938 -0.49169,-41.74115 -0.75569,-88.13728 -0.47335,-83.18697 -0.93345,-111.71297 -1.8969,-117.60716 -0.97662,-5.974722 -5.35173,-13.518016 -11.50519,-19.836543 -4.48296,-4.603219 -8.27553,-7.245235 -15.0203,-10.463607 -8.7664,-4.183024 6.43338,-3.792795 -147.73317,-3.792795 H 56.413993 l -5.050286,2.150611 C 36.869467,78.974444 29.041189,86.216324 22.526454,99.47935 l -2.205257,4.48957 -0.124852,96.34316 -0.124848,96.34316 3.302185,6.83686 c 5.617375,11.63026 11.589765,17.53952 23.970771,23.7174 8.738252,4.36021 4.986439,3.92043 37.248438,4.36623 15.855259,0.2191 68.595859,0.59477 117.201329,0.83483 l 88.37358,0.43647 17.01309,4.3625 c 65.12436,16.69921 68.5975,17.4636 68.08816,14.98518 z"
     id="path423"
     sodipodi:nodetypes="cccccccccssssssssscsscccsssscss" />
  <path
     style="opacity:0;fill:none;fill-opacity:1;stroke-width:0.472586;filter:url(#filter430)"
     d="M -68.761261,199.19499 V -56.001439 H 196.83206 462.42539 V 199.19499 454.39143 H 196.83206 -68.761261 Z M 375.26905,352.19471 c -0.12019,-0.58483 -0.35085,-2.6583 -0.51257,-4.60772 -0.16173,-1.94941 -1.11407,-10.2433 -2.11632,-18.43085 -1.00224,-8.18755 -1.94633,-16.58777 -2.09796,-18.66715 -0.15162,-2.07938 -0.49169,-41.74115 -0.75569,-88.13728 -0.47335,-83.18697 -0.93345,-111.71297 -1.8969,-117.60716 -0.97662,-5.974722 -5.35173,-13.518016 -11.50519,-19.836543 -4.48296,-4.603219 -8.27553,-7.245235 -15.0203,-10.463607 -8.7664,-4.183024 6.43338,-3.792795 -147.73317,-3.792795 H 56.413993 l -5.050286,2.150611 C 36.869467,78.974444 29.041189,86.216324 22.526454,99.47935 l -2.205257,4.48957 -0.124852,96.34316 -0.124848,96.34316 3.302185,6.83686 c 5.617375,11.63026 11.589765,17.53952 23.970771,23.7174 8.738252,4.36021 4.986439,3.92043 37.248438,4.36623 15.855259,0.2191 68.595859,0.59477 117.201329,0.83483 l 88.37358,0.43647 17.01309,4.3625 c 65.12436,16.69921 68.5975,17.4636 68.08816,14.98518 z"
     id="path430"
     sodipodi:nodetypes="cccccccccssssssssscsscccsssscss" />
  <path
     style="opacity:0;fill:none;fill-opacity:1;stroke-width:0.472586"
     d="M -68.761261,199.19499 V -56.001439 H 196.83206 462.42539 V 199.19499 454.39143 H 196.83206 -68.761261 Z M 375.26905,352.19471 c -0.12019,-0.58483 -0.35085,-2.6583 -0.51257,-4.60772 -0.16173,-1.94941 -1.11407,-10.2433 -2.11632,-18.43085 -1.00224,-8.18755 -1.94633,-16.58777 -2.09796,-18.66715 -0.15162,-2.07938 -0.49169,-41.74115 -0.75569,-88.13728 -0.47335,-83.18697 -0.93345,-111.71297 -1.8969,-117.60716 -0.97662,-5.974722 -5.35173,-13.518016 -11.50519,-19.836543 -4.48296,-4.603219 -8.27553,-7.245235 -15.0203,-10.463607 -8.7664,-4.183024 6.43338,-3.792795 -147.73317,-3.792795 H 56.413993 l -5.050286,2.150611 C 36.869467,78.974444 29.041189,86.216324 22.526454,99.47935 l -2.205257,4.48957 -0.124852,96.34316 -0.124848,96.34316 3.302185,6.83686 c 5.617375,11.63026 11.589765,17.53952 23.970771,23.7174 8.738252,4.36021 4.986439,3.92043 37.248438,4.36623 15.855259,0.2191 68.595859,0.59477 117.201329,0.83483 l 88.37358,0.43647 17.01309,4.3625 c 65.12436,16.69921 68.5975,17.4636 68.08816,14.98518 z"
     id="path431"
     sodipodi:nodetypes="cccccccccssssssssscsscccsssscss" />
  <path
     style="opacity:0;fill:none;fill-opacity:1;stroke-width:0.472586"
     d="M -68.761261,199.19499 V -56.001439 H 196.83206 462.42539 V 199.19499 454.39143 H 196.83206 -68.761261 Z M 375.26905,352.19471 c -0.12019,-0.58483 -0.35085,-2.6583 -0.51257,-4.60772 -0.16173,-1.94941 -1.11407,-10.2433 -2.11632,-18.43085 -1.00224,-8.18755 -1.94633,-16.58777 -2.09796,-18.66715 -0.15162,-2.07938 -0.49169,-41.74115 -0.75569,-88.13728 -0.47335,-83.18697 -0.93345,-111.71297 -1.8969,-117.60716 -0.97662,-5.974722 -5.35173,-13.518016 -11.50519,-19.836543 -4.48296,-4.603219 -8.27553,-7.245235 -15.0203,-10.463607 -8.7664,-4.183024 6.43338,-3.792795 -147.73317,-3.792795 H 56.413993 l -5.050286,2.150611 C 36.869467,78.974444 29.041189,86.216324 22.526454,99.47935 l -2.205257,4.48957 -0.124852,96.34316 -0.124848,96.34316 3.302185,6.83686 c 5.617375,11.63026 11.589765,17.53952 23.970771,23.7174 8.738252,4.36021 4.986439,3.92043 37.248438,4.36623 15.855259,0.2191 68.595859,0.59477 117.201329,0.83483 l 88.37358,0.43647 17.01309,4.3625 c 65.12436,16.69921 68.5975,17.4636 68.08816,14.98518 z"
     id="path432"
     sodipodi:nodetypes="cccccccccssssssssscsscccsssscss" />
  <path
     style="opacity:0;fill:none;fill-opacity:1;stroke-width:0.473;stroke-dasharray:none"
     d="M -68.761261,199.19499 V -56.001439 H 196.83206 462.42539 V 199.19499 454.39143 H 196.83206 -68.761261 Z M 375.26905,352.19471 c -0.12019,-0.58483 -0.35085,-2.6583 -0.51257,-4.60772 -0.16173,-1.94941 -1.11407,-10.2433 -2.11632,-18.43085 -1.00224,-8.18755 -1.94633,-16.58777 -2.09796,-18.66715 -0.15162,-2.07938 -0.49169,-41.74115 -0.75569,-88.13728 -0.47335,-83.18697 -0.93345,-111.71297 -1.8969,-117.60716 -0.97662,-5.974722 -5.35173,-13.518016 -11.50519,-19.836543 -4.48296,-4.603219 -8.27553,-7.245235 -15.0203,-10.463607 -8.7664,-4.183024 6.43338,-3.792795 -147.73317,-3.792795 H 56.413993 l -5.050286,2.150611 C 36.869467,78.974444 29.041189,86.216324 22.526454,99.47935 l -2.205257,4.48957 -0.124852,96.34316 -0.124848,96.34316 3.302185,6.83686 c 5.617375,11.63026 11.589765,17.53952 23.970771,23.7174 8.738252,4.36021 4.986439,3.92043 37.248438,4.36623 15.855259,0.2191 68.595859,0.59477 117.201329,0.83483 l 88.37358,0.43647 17.01309,4.3625 c 65.12436,16.69921 68.5975,17.4636 68.08816,14.98518 z"
     id="path433"
     sodipodi:nodetypes="cccccccccssssssssscsscccsssscss" />
  <use
     x="0"
     y="0"
     xlink:href="#path421"
     id="use433" />
  <path
     style="opacity:1;fill:#cccccc;fill-opacity:1;stroke-width:0.223533;stroke-dasharray:none;filter:url(#filter434)"
     d="M -68.761261,199.19499 V -56.001439 H 196.83206 462.42539 V 199.19499 454.39143 H 196.83206 -68.761261 Z M 374.83759,349.1229 c -0.16551,-2.27432 -1.25219,-11.79102 -2.41484,-21.14823 l -2.1139,-17.01309 -0.25839,-50.80299 c -0.14211,-27.94165 -0.36346,-56.43859 -0.4919,-63.32653 -0.12843,-6.88794 -0.26837,-23.47571 -0.31098,-36.8617 -0.0918,-28.85688 -0.57222,-48.89136 -1.29744,-54.1111 -1.16665,-8.396803 -8.3252,-19.257424 -16.95094,-25.717179 -3.21232,-2.405684 -10.69383,-6.358313 -15.49669,-8.187212 L 332.70053,70.887898 194.64018,70.765035 56.579818,70.642172 52.681192,72.310854 C 36.696278,79.15268 29.258862,85.941496 22.553108,99.811516 l -2.231911,4.616434 -0.124857,95.76602 -0.124862,95.76603 1.667789,3.89654 c 3.125963,7.30334 5.749429,11.52428 9.909405,15.9434 4.797476,5.09634 9.82425,8.57603 18.040091,12.48793 l 6.076383,2.89321 36.152828,0.40656 c 19.884056,0.2236 72.730986,0.59822 117.437616,0.8325 l 81.28479,0.42596 14.17758,3.65024 c 41.98416,10.80948 65.92318,16.69812 68.005,16.72821 l 2.31555,0.0335 z"
     id="path434" />
</svg>
